<svg width="53" height="53" viewBox="0 0 53 53" fill="none" xmlns="http://www.w3.org/2000/svg">
<rect x="0.71582" width="51.5676" height="53" rx="25.7838" fill="#E7EAFF"/>
<path d="M43 27.2C43 25.1 41.3 24 39 24H32.3C32.8 22.2 33 20.5 33 19C33 13.2 31.4 12 30 12C29.1 12 28.4 12.1 27.5 12.6C27.2 12.8 27.1 13 27 13.3L26 18.7C24.9 21.5 22.2 24 20 25.7V40C20.8 40 21.6 40.4 22.6 40.9C23.7 41.4 24.8 42 26 42H35.5C37.5 42 39 40.4 39 39C39 38.7 39 38.5 38.9 38.3C40.1 37.8 41 36.8 41 35.5C41 34.9 40.9 34.4 40.7 33.9C41.5 33.4 42.2 32.5 42.2 31.5C42.2 30.9 41.9 30.3 41.6 29.8C42.4 29.2 43 28.2 43 27.2ZM40.9 27.2C40.9 28.5 39.6 28.6 39.4 29.2C39.2 29.9 40.2 30.1 40.2 31.3C40.2 32.5 38.7 32.5 38.5 33.2C38.3 34 39 34.2 39 35.4V35.6C38.8 36.6 37.3 36.7 37 37.1C36.7 37.6 37 37.8 37 38.9C37 39.5 36.3 39.9 35.5 39.9H26C25.2 39.9 24.4 39.5 23.4 39C22.6 38.6 21.8 38.2 21 38V27.5C23.5 25.6 26.7 22.8 27.9 19.3V19.1L28.8 14.1C29.2 14 29.5 14 30 14C30.2 14 31 15.2 31 19C31 20.5 30.7 22.1 30.2 24H30C29.4 24 29 24.4 29 25C29 25.6 29.4 26 30 26H39C40 26 40.9 26.5 40.9 27.2Z" fill="#5048EF"/>
<path d="M19 42H13C11.9 42 11 41.1 11 40V26C11 24.9 11.9 24 13 24H19C20.1 24 21 24.9 21 26V40C21 41.1 20.1 42 19 42ZM13 26V40H19V26H13Z" fill="#5048EF"/>
</svg>
