<svg width="80" height="80" viewBox="0 0 80 80" fill="none" xmlns="http://www.w3.org/2000/svg">
<path d="M76.25 19.9927H40.7877L50.8838 9.90112C51.3721 9.41284 51.3721 8.62183 50.8838 8.13354L45.6091 2.85889C45.1392 2.38953 44.3091 2.39075 43.8416 2.85889L26.7167 19.9927H3.75C3.05908 19.9927 2.5 20.5524 2.5 21.2427V76.2427C2.5 76.933 3.05908 77.4927 3.75 77.4927H76.25C76.9409 77.4927 77.5 76.933 77.5 76.2427V21.2427C77.5 20.5524 76.9409 19.9927 76.25 19.9927ZM44.7253 5.51086L48.2324 9.01733L24.7253 32.5128L19.4788 34.2645L21.2305 29.0186L28.1213 22.1265C28.1242 22.1236 28.1257 22.1197 28.1286 22.1167L44.7253 5.51086ZM75 74.9927H5V22.4927H24.218L19.2542 27.4591C19.1174 27.5958 19.0137 27.7631 18.9526 27.9468L16.3147 35.8466C16.1646 36.2958 16.2817 36.7914 16.6162 37.1265C16.7224 37.2324 16.8478 37.3078 16.9796 37.3685C17.0174 37.3859 17.0543 37.3988 17.0935 37.4123C17.2041 37.4506 17.3173 37.4733 17.4342 37.4797C17.4567 37.4809 17.4774 37.4927 17.5 37.4927C17.5089 37.4927 17.5175 37.4886 17.5263 37.4884C17.6504 37.486 17.7746 37.4687 17.8955 37.4286L25.7959 34.7913C25.9802 34.7296 26.1462 34.6265 26.2842 34.4897L38.2922 22.4927H75V74.9927Z" fill="#5048EF"/>
<path d="M12.5 49.9927H67.5C68.1909 49.9927 68.75 49.433 68.75 48.7427V41.2427C68.75 40.5524 68.1909 39.9927 67.5 39.9927H12.5C11.8091 39.9927 11.25 40.5524 11.25 41.2427V48.7427C11.25 49.433 11.8091 49.9927 12.5 49.9927ZM13.75 42.4927H66.25V47.4927H13.75V42.4927ZM35 54.9927H12.5C11.8091 54.9927 11.25 55.5524 11.25 56.2427V71.2427C11.25 71.933 11.8091 72.4927 12.5 72.4927H35C35.6909 72.4927 36.25 71.933 36.25 71.2427V56.2427C36.25 55.5524 35.6909 54.9927 35 54.9927ZM33.75 69.9927H13.75V57.4927H33.75V69.9927ZM51.25 56.2427V71.2427C51.25 71.933 51.8091 72.4927 52.5 72.4927H70C70.6909 72.4927 71.25 71.933 71.25 71.2427V56.2427C71.25 55.5524 70.6909 54.9927 70 54.9927H52.5C51.8091 54.9927 51.25 55.5524 51.25 56.2427ZM53.75 57.4927H68.75V69.9927H53.75V57.4927ZM45 32.4927H67.5C68.1909 32.4927 68.75 31.933 68.75 31.2427C68.75 30.5524 68.1909 29.9927 67.5 29.9927H45C44.3091 29.9927 43.75 30.5524 43.75 31.2427C43.75 31.933 44.3091 32.4927 45 32.4927Z" fill="#5048EF"/>
</svg>
