<svg width="80" height="80" viewBox="0 0 80 80" fill="none" xmlns="http://www.w3.org/2000/svg">
<path d="M57.1429 0V10H22.8571V0H0V26.6667H22.8571V16.6667H42.9229C41.0354 19.5361 40.0085 23.0497 40 26.6667V53.3333C39.997 55.9844 39.0929 58.5259 37.4861 60.4005C35.8793 62.2751 33.7009 63.3298 31.4286 63.3333H22.8571V53.3333H0V80H22.8571V70H31.4286C35.216 69.9947 38.847 68.2371 41.5251 65.1126C44.2032 61.9881 45.7098 57.752 45.7143 53.3333V26.6667C45.7143 24.0162 46.6162 21.4742 48.2218 19.5991C49.8274 17.7241 52.0053 16.6693 54.2771 16.6667H57.1429V26.6667H80V0H57.1429ZM17.1429 20H5.71429V6.66667H17.1429V20ZM17.1429 73.3333H5.71429V60H17.1429V73.3333ZM74.2857 20H62.8571V6.66667H74.2857V20Z" fill="#5048EF"/>
</svg>
