<svg width="140" height="146" viewBox="0 0 140 146" fill="none" xmlns="http://www.w3.org/2000/svg">
<path d="M140 66V79.3333C140 81.1733 138.507 82.6667 136.667 82.6667H123.333L129.873 76.1267C127.77 74.0067 124.887 72.6667 121.667 72.6667C115.233 72.6667 110 77.9 110 84.3333C110 90.7667 115.233 96 121.667 96C126.303 96 130.283 93.26 132.163 89.3333H139.29C137.107 97.0167 130.04 102.667 121.667 102.667C111.56 102.667 103.333 94.4433 103.333 84.3333C103.333 74.2233 111.56 66 121.667 66C126.723 66 131.277 68.0833 134.593 71.4067L140 66ZM120.307 109.263L111.787 117.783C108.637 120.93 104.45 122.663 100 122.663C95.55 122.663 91.3633 120.93 88.2133 117.783L60 89.57V146H140V101.29C135.433 106.227 128.92 109.333 121.667 109.333C121.207 109.333 120.76 109.29 120.307 109.263ZM107.073 113.07L112.55 107.593C103.257 103.947 96.6667 94.92 96.6667 84.3333C96.6667 81.4067 97.1967 78.61 98.12 76H70C66.1767 76 62.8833 78.1833 61.2033 81.3467L92.9267 113.073C96.7067 116.85 103.29 116.85 107.07 113.073L107.073 113.07Z" fill="#5048EF"/>
<path d="M70 40H60C56.3233 40 53.3333 42.99 53.3333 46.6667C53.3333 50.3433 50.3433 53.3333 46.6667 53.3333H33.3333C29.6567 53.3333 26.6667 50.3433 26.6667 46.6667C26.6667 42.99 23.6767 40 20 40H10C4.48667 40 0 44.4867 0 50V63.3333C0 72.5233 7.47667 80 16.6667 80H63.3333C72.5233 80 80 72.5233 80 63.3333V50C80 44.4867 75.5133 40 70 40ZM73.3333 63.3333C73.3333 68.8467 68.8467 73.3333 63.3333 73.3333H16.6667C11.1533 73.3333 6.66667 68.8467 6.66667 63.3333V50C6.66667 48.16 8.16 46.6667 10 46.6667L20 46.66V46.6667C20 54.02 25.98 60 33.3333 60H46.6667C54.02 60 60 54.02 60 46.6667H70C71.84 46.6667 73.3333 48.16 73.3333 50V63.3333ZM24.31 23.7367C23.0067 22.4333 23.0067 20.3267 24.31 19.0233C25.6133 17.72 27.72 17.72 29.0233 19.0233L36.6667 26.6667V3.33333C36.6667 1.49 38.1567 0 40 0C41.8433 0 43.3333 1.49 43.3333 3.33333V26.6667L50.9767 19.0233C52.28 17.72 54.3867 17.72 55.69 19.0233C56.9933 20.3267 56.9933 22.4333 55.69 23.7367L44.7133 34.7133C43.4233 36.0033 41.7267 36.6533 40.03 36.66L40 36.6667L39.97 36.66C38.2733 36.6533 36.5767 36.0033 35.2867 34.7133L24.31 23.7367Z" fill="#5048EF"/>
</svg>
