<svg width="100" height="101" viewBox="0 0 100 101" fill="none" xmlns="http://www.w3.org/2000/svg">
<path d="M99.7783 61.8685V89.4623C99.7783 92.3897 98.6102 95.1971 96.5311 97.267C94.452 99.337 91.6321 100.5 88.6918 100.5H11.0865C8.14616 100.5 5.32627 99.337 3.24715 97.267C1.16804 95.1971 0 92.3897 0 89.4623V12.1996C0 9.2723 1.16804 6.46486 3.24715 4.39493C5.32627 2.32499 8.14616 1.16211 11.0865 1.16211H38.8027V12.1996H11.0865V89.4623H88.6918V61.8685H99.7783Z" fill="#5048EF"/>
<path d="M99.9997 22.5751H77.8268V0.5H66.7403V22.5751H44.5674V33.6126H66.7403V55.6876H77.8268V33.6126H99.9997V22.5751Z" fill="#5048EF"/>
</svg>
