<svg width="53" height="53" viewBox="0 0 53 53" fill="none" xmlns="http://www.w3.org/2000/svg">
<rect x="0.71582" width="51.5676" height="53" rx="25.7838" fill="#E7EAFF"/>
<path d="M26.5001 33.6622C30.4556 33.6622 33.6622 30.4556 33.6622 26.5001C33.6622 22.5445 30.4556 19.3379 26.5001 19.3379C22.5445 19.3379 19.3379 22.5445 19.3379 26.5001C19.3379 30.4556 22.5445 33.6622 26.5001 33.6622Z" stroke="#5048EF" stroke-width="1.07432" stroke-linecap="round" stroke-linejoin="round"/>
<path d="M23.6348 28.6486C23.9683 29.0934 24.4009 29.4544 24.8981 29.703C25.3954 29.9516 25.9437 30.081 26.4996 30.081C27.0556 30.081 27.6039 29.9516 28.1011 29.703C28.5984 29.4544 29.0309 29.0934 29.3645 28.6486M23.6412 24.3513H23.6348M29.3645 24.3513H29.358" stroke="#5048EF" stroke-width="1.07432" stroke-linecap="round" stroke-linejoin="round"/>
</svg>
